<?xml version="1.0" standalone="no"?>
<!DOCTYPE svg PUBLIC "-//W3C//DTD SVG 20010904//EN"
 "http://www.w3.org/TR/2001/REC-SVG-20010904/DTD/svg10.dtd">
<svg version="1.0" xmlns="http://www.w3.org/2000/svg"
 width="860.000000pt" height="988.000000pt" viewBox="0 0 860.000000 988.000000"
 preserveAspectRatio="xMidYMid meet">

<g transform="translate(0.000000,988.000000) scale(0.100000,-0.100000)"
fill="#000000" stroke="none">
<path d="M4052 9463 c37 -2 100 -2 140 0 40 1 10 3 -67 3 -77 0 -110 -1 -73
-3z"/>
<path d="M4438 9463 c34 -2 90 -2 125 0 34 2 6 3 -63 3 -69 0 -97 -1 -62 -3z"/>
<path d="M3783 9453 c15 -2 39 -2 55 0 15 2 2 4 -28 4 -30 0 -43 -2 -27 -4z"/>
<path d="M4753 9453 c15 -2 39 -2 55 0 15 2 2 4 -28 4 -30 0 -43 -2 -27 -4z"/>
<path d="M3628 9443 c12 -2 30 -2 40 0 9 3 -1 5 -23 4 -22 0 -30 -2 -17 -4z"/>
<path d="M4928 9443 c12 -2 32 -2 45 0 12 2 2 4 -23 4 -25 0 -35 -2 -22 -4z"/>
<path d="M3503 9433 c9 -2 23 -2 30 0 6 3 -1 5 -18 5 -16 0 -22 -2 -12 -5z"/>
<path d="M5063 9433 c9 -2 25 -2 35 0 9 3 1 5 -18 5 -19 0 -27 -2 -17 -5z"/>
<path d="M3393 9423 c9 -2 23 -2 30 0 6 3 -1 5 -18 5 -16 0 -22 -2 -12 -5z"/>
<path d="M5178 9423 c6 -2 18 -2 25 0 6 3 1 5 -13 5 -14 0 -19 -2 -12 -5z"/>
<path d="M3293 9413 c9 -2 23 -2 30 0 6 3 -1 5 -18 5 -16 0 -22 -2 -12 -5z"/>
<path d="M5273 9413 c9 -2 23 -2 30 0 6 3 -1 5 -18 5 -16 0 -22 -2 -12 -5z"/>
<path d="M3208 9403 c6 -2 18 -2 25 0 6 3 1 5 -13 5 -14 0 -19 -2 -12 -5z"/>
<path d="M5368 9403 c7 -3 16 -2 19 1 4 3 -2 6 -13 5 -11 0 -14 -3 -6 -6z"/>
<path d="M3128 9393 c6 -2 18 -2 25 0 6 3 1 5 -13 5 -14 0 -19 -2 -12 -5z"/>
<path d="M5448 9393 c7 -3 16 -2 19 1 4 3 -2 6 -13 5 -11 0 -14 -3 -6 -6z"/>
<path d="M3058 9383 c7 -3 16 -2 19 1 4 3 -2 6 -13 5 -11 0 -14 -3 -6 -6z"/>
<path d="M5518 9383 c6 -2 18 -2 25 0 6 3 1 5 -13 5 -14 0 -19 -2 -12 -5z"/>
<path d="M2988 9373 c7 -3 16 -2 19 1 4 3 -2 6 -13 5 -11 0 -14 -3 -6 -6z"/>
<path d="M5588 9373 c7 -3 16 -2 19 1 4 3 -2 6 -13 5 -11 0 -14 -3 -6 -6z"/>
<path d="M5658 9363 c7 -3 16 -2 19 1 4 3 -2 6 -13 5 -11 0 -14 -3 -6 -6z"/>
<path d="M5718 9353 c7 -3 16 -2 19 1 4 3 -2 6 -13 5 -11 0 -14 -3 -6 -6z"/>
<path d="M5778 9343 c7 -3 16 -2 19 1 4 3 -2 6 -13 5 -11 0 -14 -3 -6 -6z"/>
<path d="M2748 9333 c7 -3 16 -2 19 1 4 3 -2 6 -13 5 -11 0 -14 -3 -6 -6z"/>
<path d="M5988 9303 c7 -3 16 -2 19 1 4 3 -2 6 -13 5 -11 0 -14 -3 -6 -6z"/>
<path d="M7460 8695 c13 -14 26 -25 28 -25 3 0 -5 11 -18 25 -13 14 -26 25
-28 25 -3 0 5 -11 18 -25z"/>
<path d="M1079 8653 l-24 -28 28 24 c25 23 32 31 24 31 -2 0 -14 -12 -28 -27z"/>
<path d="M7555 8600 c10 -11 20 -20 23 -20 3 0 -3 9 -13 20 -10 11 -20 20 -23
20 -3 0 3 -9 13 -20z"/>
<path d="M7712 8255 c0 -16 2 -22 5 -12 2 9 2 23 0 30 -3 6 -5 -1 -5 -18z"/>
<path d="M7709 8156 c-25 -258 -341 -541 -829 -742 -507 -208 -1142 -342
-1930 -404 -220 -18 -850 -24 -1095 -11 -1605 85 -2798 532 -2961 1111 -10 37
-12 -572 -13 -3247 -1 -3189 0 -3293 18 -3351 104 -336 558 -633 1281 -840
462 -132 984 -215 1590 -252 225 -14 823 -14 1055 0 1573 94 2748 552 2880
1124 13 56 15 474 13 3373 -2 1819 -6 3277 -9 3239z m-4814 -2931 c50 -9 120
-25 158 -37 l67 -22 0 -228 0 -227 -60 35 c-158 93 -393 137 -550 103 -63 -13
-138 -63 -164 -108 -31 -54 -28 -154 7 -213 37 -63 94 -102 314 -216 103 -54
215 -116 249 -139 205 -140 295 -292 296 -503 1 -190 -48 -319 -167 -436 -124
-123 -300 -193 -545 -216 -216 -20 -475 17 -625 88 l-60 29 -3 238 c-1 153 1
237 8 237 5 0 33 -18 62 -40 72 -54 196 -114 293 -141 62 -18 107 -23 205 -23
122 -1 127 0 193 32 102 51 144 131 118 228 -26 98 -89 151 -316 265 -88 45
-196 105 -241 135 -142 93 -247 215 -293 338 -45 120 -45 284 -2 410 78 222
284 374 571 421 107 18 358 13 485 -10z m1788 10 c556 -84 895 -566 847 -1205
-33 -427 -247 -763 -577 -907 -35 -15 -63 -30 -63 -33 0 -3 125 -121 278 -262
152 -141 290 -270 306 -287 l30 -31 -320 0 -321 0 -222 249 -222 250 -57 6
c-493 53 -841 380 -927 869 -20 116 -20 335 1 457 18 110 61 245 107 338 204
414 648 630 1140 556z m1697 -905 l0 -880 400 0 400 0 0 -200 0 -200 -645 0
-645 0 0 1080 0 1080 245 0 245 0 0 -880z"/>
<path d="M4343 4805 c-176 -48 -308 -190 -372 -400 -42 -134 -44 -386 -6 -535
40 -157 146 -306 263 -368 120 -64 292 -79 417 -36 123 41 229 140 294 271 83
166 101 439 45 661 -52 208 -201 371 -375 411 -62 15 -205 12 -266 -4z"/>
</g>
</svg>
